<?xml version="1.0" encoding="iso-8859-1"?>
<!-- Generator: Adobe Illustrator 19.0.0, SVG Export Plug-In . SVG Version: 6.00 Build 0)  -->
<svg version="1.1" id="Layer_1" xmlns="http://www.w3.org/2000/svg" xmlns:xlink="http://www.w3.org/1999/xlink" x="0px" y="0px"
	 viewBox="0 0 503.322 503.322" style="enable-background:new 0 0 503.322 503.322;" xml:space="preserve">
<g transform="translate(1 1)">
	<g>
		<path style="fill:#FFE100;" d="M423.405,215.949c-9.546-9.546-23.431-12.149-35.58-7.81c5.207,1.736,9.546,4.339,13.017,7.81
			c13.885,13.885,13.885,35.58,0,49.464l-30.373,30.373c8.678-8.678,20.827-11.281,31.241-9.546l21.695-21.695
			C437.29,251.529,437.29,228.966,423.405,215.949"/>
		<path style="fill:#FFE100;" d="M400.843,19.827c13.885,13.885,13.885,35.58,0,49.464l-73.763,73.763
			c8.678-8.678,20.827-11.281,31.241-9.546l64.217-64.217c13.885-13.885,13.885-35.58,0-49.464l0,0
			c-8.678-8.678-21.695-12.149-32.976-8.678C393.033,12.017,396.504,14.62,400.843,19.827"/>
		<path style="fill:#FFE100;" d="M441.629,295.786c-9.546-9.546-23.431-12.149-35.58-7.81c5.207,1.736,9.546,4.339,13.017,7.81
			c13.885,13.885,13.885,35.58,0,49.464l-97.193,97.193c-16.488,16.488-18.224,25.166-22.563,28.637
			c12.149-3.471,28.637-12.149,45.125-28.637l98.061-98.061C455.514,331.366,455.514,308.803,441.629,295.786"/>
		<path style="fill:#FFE100;" d="M352.246,215.949c8.678-8.678,20.827-11.281,31.241-9.546l14.753-14.753
			c13.885-13.885,13.885-35.58,0-49.464l0,0c-9.546-9.546-23.431-12.149-35.58-7.81c5.207,1.736,9.546,4.339,13.017,7.81
			c13.885,13.885,13.885,35.58,0,49.464L352.246,215.949z"/>
		<path style="fill:#FFE100;" d="M398.239,344.383c13.885-13.885,13.885-35.58,0-49.464s-19.959-13.885-32.976,0l14.753-30.373
			c13.885-13.885,13.885-35.58,0-49.464l0,0c-13.885-13.885-18.224-13.885-32.108,0l7.81-24.298
			c13.885-13.885,13.885-35.58,0-49.464s-35.58-13.885-49.464,0l-0.868,24.298l74.63-98.061c13.885-13.885,13.885-35.58,0-49.464
			c-13.885-13.885-26.902-4.339-40.786,8.678L200.382,165.617v-16.488c6.942-27.769-13.885-65.085-26.034-70.292
			c-3.471-1.736-5.207-7.81-8.678-8.678c-13.017-2.603-4.339-4.339-6.075-3.471c-1.736,3.471-2.603,74.631-18.224,131.037
			c0,0-11.281,46.861-12.149,85.912l-18.224,18.224c-30.373,30.373-30.373,79.837,0,110.21l61.614,61.614
			c24.298,24.298,45.125,32.976,73.763,14.753c6.075-4.339,6.075-9.546,14.753-10.414c11.281-0.868,18.224-13.885,39.051-34.712
			L398.239,344.383z"/>
	</g>
	<path style="fill:#FFFFFF;" d="M171.744,473.685l-61.614-61.614c-30.373-30.373-30.373-79.837,0-110.21l18.224-18.224
		c0.868-39.051,12.149-85.912,12.149-85.912c14.753-52.068,16.488-118.02,18.224-127.566c-1.736-1.736,1.736-2.603,0-0.868v0.868
		c0.868,0.868,2.603,1.736,6.075,1.736c3.471,0.868,5.207,6.942,8.678,8.678c11.281,5.207,28.637,35.58,27.769,61.614
		c4.339-32.108-13.885-65.085-39.051-76.366c-3.471-1.736-6.942-2.603-11.281-3.471c-12.149-1.736-15.62,5.207-17.356,6.942
		c-1.736,0.868-2.603,72.895-18.224,128.434c0,0-11.281,46.861-12.149,85.912l-18.224,18.224c-30.373,30.373-30.373,79.837,0,110.21
		l61.614,61.614c13.885,13.885,34.712,21.695,55.539,21.695C191.704,491.908,182.158,484.098,171.744,473.685"/>
	<g>
		<path style="fill:#FFA800;" d="M397.372,215.949c-9.546-9.546-23.431-12.149-35.58-7.81c5.207,1.736,9.546,4.339,13.017,7.81
			c13.885,13.885,13.885,35.58,0,49.464l-30.373,30.373c8.678-8.678,20.827-11.281,31.241-9.546l21.695-21.695
			C411.256,251.529,411.256,228.966,397.372,215.949"/>
		<path style="fill:#FFA800;" d="M374.809,19.827c13.885,13.885,13.885,35.58,0,49.464l-73.763,73.763
			c8.678-8.678,20.827-11.281,31.241-9.546l64.217-64.217c13.885-13.885,13.885-35.58,0-49.464l0,0
			c-8.678-8.678-21.695-12.149-32.976-8.678C366.999,12.017,370.47,14.62,374.809,19.827"/>
		<path style="fill:#FFA800;" d="M415.595,295.786c-9.546-9.546-23.431-12.149-35.58-7.81c5.207,1.736,9.546,4.339,13.017,7.81
			c13.885,13.885,13.885,35.58,0,49.464l-97.193,97.193c-16.488,16.488-18.224,25.166-22.563,28.637
			c12.149-3.471,28.637-12.149,45.125-28.637l98.061-98.061C429.48,331.366,429.48,308.803,415.595,295.786"/>
		<path style="fill:#FFA800;" d="M326.212,215.949c8.678-8.678,20.827-11.281,31.241-9.546l14.753-14.753
			c13.885-13.885,13.885-35.58,0-49.464l0,0c-9.546-9.546-23.431-12.149-35.58-7.81c5.207,1.736,9.546,4.339,13.017,7.81
			c13.885,13.885,13.885,35.58,0,49.464L326.212,215.949z"/>
	</g>
	<path d="M184.761,204.668c-0.868,0-1.736,0-2.603-0.868c-4.339-1.736-6.942-6.075-5.207-11.281l6.075-18.224
		c1.736-4.339,6.075-6.942,11.281-5.207c4.339,1.736,6.942,6.075,5.207,11.281l-6.075,18.224
		C191.704,202.064,188.233,204.668,184.761,204.668z"/>
	<path d="M225.548,248.925c-2.603,0-4.339-0.868-6.075-2.603c-3.471-3.471-3.471-8.678,0-12.149l75.498-75.498
		c3.471-3.471,8.678-3.471,12.149,0c3.471,3.471,3.471,8.678,0,12.149l-75.498,75.498
		C229.887,248.925,228.151,248.925,225.548,248.925z"/>
	<path d="M281.087,292.315c-2.603,0-4.339-0.868-6.075-2.603c-3.471-3.471-3.471-8.678,0-12.149l69.424-69.424
		c3.471-3.471,8.678-3.471,12.149,0c3.471,3.471,3.471,8.678,0,12.149l-69.424,69.424
		C285.426,291.447,283.69,292.315,281.087,292.315z"/>
	<path d="M323.609,347.854c-2.603,0-4.339-0.868-6.075-2.603c-3.471-3.471-3.471-8.678,0-12.149l45.125-45.125
		c3.471-3.471,8.678-3.471,12.149,0s3.471,8.678,0,12.149l-44.258,45.125C328.816,346.986,326.212,347.854,323.609,347.854z"/>
	<path d="M269.805,478.024c-13.885,0-27.769-6.942-41.654-15.62c-4.339-2.603-5.207-7.81-3.471-12.149
		c2.603-4.339,7.81-5.207,12.149-3.471c19.959,11.281,31.241,16.488,43.39,10.414c4.339-1.736,9.546,0,11.281,4.339
		c1.736,4.339,0,9.546-4.339,11.281C281.087,477.156,275.012,478.024,269.805,478.024z"/>
	<path d="M104.056,336.573c-4.339,0-7.81-3.471-8.678-7.81c-0.868-5.207-0.868-10.414-1.736-15.62
		c-0.868-10.414-2.603-19.959-2.603-30.373c0-5.207,3.471-8.678,8.678-8.678c4.339,0,8.678,3.471,8.678,8.678
		c0,9.546,1.736,19.959,2.603,29.505c0.868,5.207,1.736,11.281,1.736,16.488C112.734,331.366,109.263,335.705,104.056,336.573
		L104.056,336.573z"/>
	<path d="M198.646,502.322c-23.431,0-46.861-8.678-62.481-24.298L74.551,416.41c-33.844-33.844-33.844-88.515,0-122.359
		l16.488-15.62c1.736-38.183,12.149-82.441,12.149-84.176c11.281-39.919,14.753-88.515,16.488-111.946
		c0.868-18.224,1.736-19.959,5.207-22.563c2.603-2.603,9.546-10.414,25.166-7.81c3.471,0.868,7.81,1.736,13.017,4.339
		c32.108,14.753,52.068,58.142,42.522,95.458l56.407-56.407c3.471-3.471,8.678-3.471,12.149,0s3.471,8.678,0,12.149l-77.234,75.498
		c-2.603,2.603-6.942,3.471-10.414,1.736c-3.471-1.736-5.207-5.207-4.339-9.546l5.207-27.77
		c8.678-31.241-10.414-65.953-32.108-76.366c-2.603-0.868-5.207-1.736-8.678-2.603c-5.207-0.868-6.942,0-8.678,1.736
		c0,2.603-0.868,7.81-0.868,12.149c-1.736,24.298-5.207,73.763-17.356,114.549c0,0-11.281,45.993-12.149,84.176
		c0,2.603-0.868,4.339-2.603,6.075L86.7,305.332c-26.902,26.902-26.902,71.159,0,98.061l61.614,61.614
		c20.827,20.827,61.614,25.166,86.78,9.546c11.281-6.942,21.695-11.281,29.505-12.149c7.81-0.868,28.637-6.942,49.464-27.77
		l98.061-98.061c5.207-5.207,7.81-11.281,7.81-18.224c0-6.942-2.603-13.885-7.81-18.224c-9.546-9.546-26.902-9.546-36.447,0l0,0
		c-3.471,3.471-8.678,3.471-12.149,0c-3.471-3.471-3.471-8.678,0-12.149l0,0l30.373-30.373c5.207-5.207,7.81-11.281,7.81-18.224
		s-2.603-13.885-7.81-18.224c-9.546-9.546-26.902-9.546-36.447,0c-3.471,3.471-8.678,3.471-12.149,0
		c-3.471-3.471-3.471-8.678,0-12.149l24.298-24.298c5.207-5.207,7.81-11.281,7.81-18.224c0-6.942-2.603-13.885-7.81-18.224
		c-5.207-4.339-11.281-7.81-18.224-7.81l0,0c-6.942,0-13.885,2.603-18.224,7.81l-24.298,24.298c-3.471,3.471-8.678,3.471-12.149,0
		c-3.471-3.471-3.471-8.678,0-12.149L393.9,60.614c5.207-5.207,7.81-11.281,7.81-18.224s-2.603-13.885-7.81-18.224
		c-5.207-4.339-11.281-7.81-18.224-7.81l0,0c-6.942,0-13.885,2.603-18.224,7.81l-43.39,43.39c-3.471,3.471-8.678,3.471-12.149,0
		c-3.471-3.471-3.471-8.678,0-12.149l43.39-43.39C353.114,4.207,364.395-1,375.677-1l0,0c11.281,0,22.563,4.339,30.373,13.017
		c7.81,7.81,13.017,19.092,13.017,30.373s-4.339,22.563-13.017,30.373l-49.464,49.464c9.546,1.736,18.224,5.207,24.298,12.149
		c7.81,7.81,13.017,19.092,13.017,30.373c0,11.281-4.339,22.563-13.017,30.373c9.546,0.868,18.224,5.207,24.298,12.149
		c7.81,7.81,13.017,19.092,13.017,30.373c0,11.281-4.339,23.431-12.149,32.108l-6.075,6.075c9.546,1.736,18.224,5.207,24.298,12.149
		c7.81,7.81,13.017,19.092,13.017,30.373c0,11.281-4.339,22.563-13.017,30.373l-98.061,98.929
		c-22.563,22.563-46.861,32.108-60.746,32.976c-2.603,0-9.546,1.736-21.695,9.546C230.755,497.983,215.134,502.322,198.646,502.322z
		 M137.9,69.292L137.9,69.292L137.9,69.292z"/>
	<path d="M295.839,79.705c0-5.207-3.471-8.678-8.678-8.678c-5.207,0-8.678,3.471-8.678,8.678c0,5.207,3.471,8.678,8.678,8.678
		C292.368,88.383,295.839,84.912,295.839,79.705"/>
</g>
<g>
</g>
<g>
</g>
<g>
</g>
<g>
</g>
<g>
</g>
<g>
</g>
<g>
</g>
<g>
</g>
<g>
</g>
<g>
</g>
<g>
</g>
<g>
</g>
<g>
</g>
<g>
</g>
<g>
</g>
</svg>
